# xmcd
#
# Track frame offsets:
# 150
# 10690
# 26647
# 56913
# 80592
# 97605
# 114139
# 146656
# 158620
# 175785
# 191383
# 212552
# 226303
# 239912
#
# Disc length: 3356 seconds
#
#
# Revision: 2
# Processed by: cddbd v1.5.2PL0 Copyright (c) Steve Scherf et al.
# Submitted via: FreeRIP 2.951 
#
DISCID=aa0d1a0e
DTITLE=Various Artist - Blues Breakers CD3
DYEAR=2000
DGENRE=Blues
TTITLE0=John Lee Hooker - Boogie Chillen 2
TTITLE1=Jimmy Witherspoon - Gee Baby Ain't I Been Good To You
TTITLE2=Brownie Mc Ghee and Sonny Terry - Everybody's Blue
TTITLE3=B.B. King - You've Done Lost You're Good Thing Now
TTITLE4=Ike and Tina Turner - I Smell Trouble
TTITLE5=Johnny Winter - Kind Hearted Woman
TTITLE6=Big Mama Thornton - Ball And Chain
TTITLE7=Canned Heat - Got My Mojo Working
TTITLE8=Mississippi John Hurt - Nobody's Business But Mine
TTITLE9=Nina Simone - I Want A Little Sugar In May Bowl
TTITLE10=Mike Bloomfield - Cherry Red
TTITLE11=Lightning Hopkins - Mojo Hand
TTITLE12=Ray Charles - I'm Gonna Drown Myself
TTITLE13=John Mayall - Lost And Gone
EXTD=
EXTT0=
EXTT1=
EXTT2=
EXTT3=
EXTT4=
EXTT5=
EXTT6=
EXTT7=
EXTT8=
EXTT9=
EXTT10=
EXTT11=
EXTT12=
EXTT13=
PLAYORDER=
